HIERARCHY
ROOT root
{
	OFFSET	0	13.1	24.9
	CHANNELS 6  Xposition Yposition Zposition Xrotation Yrotation Zrotation
	JOINT spine_1
	{
		OFFSET	0	9.99999	0
		CHANNELS 3  Xrotation Yrotation Zrotation
		JOINT spine_2
		{
			OFFSET	0	112	-10
			CHANNELS 3  Xrotation Yrotation Zrotation
			JOINT spine_3
			{
				OFFSET	0	206.5	19.3
				CHANNELS 3  Xrotation Yrotation Zrotation
				JOINT spine_4
				{
					OFFSET	0	110.4	14.6
					CHANNELS 3  Xrotation Yrotation Zrotation
					JOINT neck_1
					{
						OFFSET	0	71.8	-50.3
						CHANNELS 3  Xrotation Yrotation Zrotation
						JOINT neck_2
						{
							OFFSET	0	86.2	-25.8
							CHANNELS 3  Xrotation Yrotation Zrotation
							JOINT head_ee
							{
								OFFSET	0	179.8	-8.7
								CHANNELS 3  Xrotation Yrotation Zrotation
								End Site
								{
									OFFSET	1	0	0
								}
							}
						}
					}
					JOINT left_clavicle
					{
						OFFSET	-43.2	22.4	-70.8
						CHANNELS 3  Xrotation Yrotation Zrotation
						JOINT left_shoulder
						{
							OFFSET	-93.9	-5.79999	48.7
							CHANNELS 3  Xrotation Yrotation Zrotation
							JOINT left_elbow
							{
								OFFSET	-291.4	-30.8	15.2
								CHANNELS 3  Xrotation Yrotation Zrotation
								JOINT left_lowarm_twist
								{
									OFFSET	-110.7	-3.89999	13.6
									CHANNELS 3  Xrotation Yrotation Zrotation
									JOINT left_hand
									{
										OFFSET	-110.7	-3.89999	13.6
										CHANNELS 3  Xrotation Yrotation Zrotation
										JOINT left_ee
										{
											OFFSET	-80.8	-5.10001	12.1
											CHANNELS 3  Xrotation Yrotation Zrotation
											End Site
											{
												OFFSET	1	0	0
											}
										}
									}
								}
							}
						}
					}
					JOINT right_clavicle
					{
						OFFSET	43.2	22.4	-70.8
						CHANNELS 3  Xrotation Yrotation Zrotation
						JOINT right_shoulder
						{
							OFFSET	93.9	-5.79999	48.7
							CHANNELS 3  Xrotation Yrotation Zrotation
							JOINT right_elbow
							{
								OFFSET	291.4	-30.8	15.2
								CHANNELS 3  Xrotation Yrotation Zrotation
								JOINT right_lowarm_twist
								{
									OFFSET	110.7	-3.89999	13.6
									CHANNELS 3  Xrotation Yrotation Zrotation
									JOINT right_hand
									{
										OFFSET	110.7	-3.89999	13.6
										CHANNELS 3  Xrotation Yrotation Zrotation
										JOINT right_ee
										{
											OFFSET	80.8	-5.10001	12.1
											CHANNELS 3  Xrotation Yrotation Zrotation
											End Site
											{
												OFFSET	1	0	0
											}
										}
									}
								}
							}
						}
					}
				}
			}
		}
	}
	JOINT left_hip
	{
		OFFSET	-82.8	-127.5	0.300001
		CHANNELS 3  Xrotation Yrotation Zrotation
		JOINT left_knee
		{
			OFFSET	-28.2	-396.7	2.2
			CHANNELS 3  Xrotation Yrotation Zrotation
			JOINT left_ankle
			{
				OFFSET	-11.7	-411.3	35.4
				CHANNELS 3  Xrotation Yrotation Zrotation
				JOINT left_toes
				{
					OFFSET	0	-60	-88.6
					CHANNELS 3  Xrotation Yrotation Zrotation
					JOINT left_foot_ee
					{
						OFFSET	-22.5	-16.5	-42.2
						CHANNELS 3  Xrotation Yrotation Zrotation
						End Site
						{
							OFFSET	1	0	0
						}
					}
				}
			}
		}
	}
	JOINT right_hip
	{
		OFFSET	82.8	-127.5	0.300001
		CHANNELS 3  Xrotation Yrotation Zrotation
		JOINT right_knee
		{
			OFFSET	28.2	-396.7	2.2
			CHANNELS 3  Xrotation Yrotation Zrotation
			JOINT right_ankle
			{
				OFFSET	11.7	-411.3	35.4
				CHANNELS 3  Xrotation Yrotation Zrotation
				JOINT right_toes
				{
					OFFSET	0	-60	-88.6
					CHANNELS 3  Xrotation Yrotation Zrotation
					JOINT right_foot_ee
					{
						OFFSET	22.5	-16.5	-42.2
						CHANNELS 3  Xrotation Yrotation Zrotation
						End Site
						{
							OFFSET	1	0	0
						}
					}
				}
			}
		}
	}
}
MOTION
Frames: 13
Frame Time: 0.02
2800.94 716.97 -1473.77 6.22384466889 60.8887110259 -0.931123193356 -1.85505 -0.503488 -3.38628 -1.84871 -0.287118 -3.41142 -1.82512 0.544679 -3.37991 -1.84106 0.00437494 -3.42346 -8.55872 13.6191 2.4527 -8.64864 23.8125 5.55018 -0.0 0.0 -0.0 9.27406 8.9426 17.6052 0.891315 -20.1019 63.4205 3.19689 -57.7167 1.76207 -58.3474 -5.07797 5.04676 -1.84404 10.8265 -7.29753 -0.0 0.0 -0.0 2.22288 3.74962 -3.97247 -17.8347 8.80874 -66.1078 0.593249 16.3771 -0.0853681 67.8935 2.52477 7.78579 -5.01387 -28.8962 15.9372 0.0 0.0 0.0 -7.84443 48.3626 -8.34496 -14.2803 0.319915 2.16248 38.683 -14.2388 -5.02392 -13.1262 0.0 0.0 -0.0 0.0 -0.0 31.449 24.6967 -8.66716 -11.8734 -0.303952 -1.79355 -15.7561 0.265099 -2.39265 13.8499 -0.0 -0.0 0.0 0.0 0.0 
2759.15126829 713.05 -1496.30338925 8.53656053788 60.8957515264 -4.66355833713 -2.00113 -0.274313 -2.83734 -1.99665 -0.0932842 -2.84903 -1.9876 0.605018 -2.78566 -1.99839 0.157669 -2.8462 -4.03831 12.1719 3.2566 -3.90647 19.8042 5.27479 -0.0 0.0 -0.0 8.7685 9.61163 16.611 -4.09376 -18.8404 63.3967 2.83003 -54.4891 1.45744 -57.1854 -4.93494 5.00497 -1.43581 12.5325 -3.8966 -0.0 0.0 -0.0 2.50995 2.88056 -4.61288 -16.8424 10.6573 -66.1748 0.646583 17.7603 -0.101024 68.3415 2.57011 7.82111 -5.06623 -28.9104 16.223 0.0 0.0 0.0 -9.06987 44.8135 -8.77409 -22.7768 0.252333 3.46321 38.3224 -5.27354 -4.78832 -11.487 0.0 0.0 -0.0 0.0 -0.0 29.4742 24.7696 -9.06425 -17.851 -0.315027 -2.71022 -6.29396 -6.35709 -0.933746 15.4787 -0.0 -0.0 0.0 0.0 0.0 
2759.55893092 713.05 -1497.0435655 8.27423683341 59.8869125505 -4.36184761939 -2.00113 -0.274313 -2.83734 -1.99665 -0.0932842 -2.84903 -1.9876 0.605018 -2.78566 -1.99839 0.157669 -2.8462 -4.03831 12.1719 3.2566 -3.90647 19.8042 5.27479 -0.0 0.0 -0.0 8.7685 9.61163 16.611 -4.09376 -18.8404 63.3967 2.83003 -54.4891 1.45744 -57.1854 -4.93494 5.00497 -1.43581 12.5325 -3.8966 -0.0 0.0 -0.0 2.50995 2.88056 -4.61288 -16.8424 10.6573 -66.1748 0.646583 17.7603 -0.101024 68.3415 2.57011 7.82111 -5.06623 -28.9104 16.223 0.0 0.0 0.0 -9.06987 44.8135 -8.77409 -22.7768 0.252333 3.46321 38.3224 -5.27354 -4.78832 -11.487 0.0 0.0 -0.0 0.0 -0.0 29.4742 24.7696 -9.06425 -17.851 -0.315027 -2.71022 -6.29396 -6.35709 -0.933746 15.4787 -0.0 -0.0 0.0 0.0 0.0 
2759.89712832 713.05 -1497.63492014 8.07592542909 59.0731366827 -4.13164756448 -2.00113 -0.274313 -2.83734 -1.99665 -0.0932842 -2.84903 -1.9876 0.605018 -2.78566 -1.99839 0.157669 -2.8462 -4.03831 12.1719 3.2566 -3.90647 19.8042 5.27479 -0.0 0.0 -0.0 8.7685 9.61163 16.611 -4.09376 -18.8404 63.3967 2.83003 -54.4891 1.45744 -57.1854 -4.93494 5.00497 -1.43581 12.5325 -3.8966 -0.0 0.0 -0.0 2.50995 2.88056 -4.61288 -16.8424 10.6573 -66.1748 0.646583 17.7603 -0.101024 68.3415 2.57011 7.82111 -5.06623 -28.9104 16.223 0.0 0.0 0.0 -9.06987 44.8135 -8.77409 -22.7768 0.252333 3.46321 38.3224 -5.27354 -4.78832 -11.487 0.0 0.0 -0.0 0.0 -0.0 29.4742 24.7696 -9.06425 -17.851 -0.315027 -2.71022 -6.29396 -6.35709 -0.933746 15.4787 -0.0 -0.0 0.0 0.0 0.0 
2760.32578827 713.05 -1498.35734502 7.84615592511 58.0691328011 -3.8623826574 -2.00113 -0.274313 -2.83734 -1.99665 -0.0932842 -2.84903 -1.9876 0.605018 -2.78566 -1.99839 0.157669 -2.8462 -4.03831 12.1719 3.2566 -3.90647 19.8042 5.27479 -0.0 0.0 -0.0 8.7685 9.61163 16.611 -4.09376 -18.8404 63.3967 2.83003 -54.4891 1.45744 -57.1854 -4.93494 5.00497 -1.43581 12.5325 -3.8966 -0.0 0.0 -0.0 2.50995 2.88056 -4.61288 -16.8424 10.6573 -66.1748 0.646583 17.7603 -0.101024 68.3415 2.57011 7.82111 -5.06623 -28.9104 16.223 0.0 0.0 0.0 -9.06987 44.8135 -8.77409 -22.7768 0.252333 3.46321 38.3224 -5.27354 -4.78832 -11.487 0.0 0.0 -0.0 0.0 -0.0 29.4742 24.7696 -9.06425 -17.851 -0.315027 -2.71022 -6.29396 -6.35709 -0.933746 15.4787 -0.0 -0.0 0.0 0.0 0.0 
2739.73800209 713.122 -1513.50538791 9.79476222916 58.2705153927 -6.02834824549 -2.05259 -0.255646 -2.59596 -2.04885 -0.0899974 -2.60695 -2.041 0.55142 -2.5496 -2.05004 0.141981 -2.60464 -2.344 11.9747 3.33644 -2.1625 19.0821 5.09891 -0.0 0.0 -0.0 8.44991 8.92809 16.0748 -5.86539 -18.7179 63.4516 2.37807 -49.6655 1.1006 -55.9911 -4.78882 4.95899 -1.04135 12.0887 -1.60432 -0.0 0.0 -0.0 2.98197 2.59693 -5.56637 -16.0802 12.0327 -67.2386 0.578699 15.9962 -0.0813119 67.996 2.53512 7.79391 -5.18305 -28.4961 17.1964 0.0 0.0 0.0 -10.9228 42.6548 -8.71084 -27.0175 0.1467 4.10527 37.8424 -0.188577 -4.68686 -10.5462 0.0 0.0 -0.0 0.0 -0.0 27.2644 24.8866 -9.32423 -19.2253 -0.304052 -2.92079 -0.840509 -8.42675 -0.123243 15.0868 -0.0 -0.0 0.0 0.0 0.0 
2705.94398536 723.272 -1533.69615271 14.0697558411 59.2672817629 -10.9060164811 -2.51277 -0.153488 -2.23392 -2.51 -0.011063 -2.23915 -2.50659 0.555466 -2.16922 -2.5131 0.205996 -2.22969 -0.223137 10.8262 4.35027 -0.0391418 15.801 5.81563 -0.0 0.0 -0.0 8.14924 8.5205 15.5459 -10.4748 -17.4865 63.445 1.83919 -42.3319 0.712168 -53.7982 -4.5231 4.86666 -0.645044 13.1367 1.34581 -0.0 0.0 -0.0 4.3692 1.74354 -8.35297 -13.6638 14.3013 -65.4487 0.57471 15.8915 -0.0802162 67.9263 2.52808 7.78839 -5.51259 -29.1145 18.6141 0.0 0.0 0.0 -9.66191 37.35 -10.3181 -40.4169 -0.493504 6.05654 35.6446 13.3908 -4.50295 -11.0419 0.0 0.0 -0.0 0.0 -0.0 20.9698 25.4949 -8.64306 -18.1809 -0.312853 -2.76079 9.6801 -11.9588 1.3809 12.9118 -0.0 -0.0 0.0 0.0 0.0 
2706.3792626 723.272 -1534.38067166 13.9028672052 58.8657429756 -10.7114554476 -2.51277 -0.153488 -2.23392 -2.51 -0.011063 -2.23915 -2.50659 0.555466 -2.16922 -2.5131 0.205996 -2.22969 -0.223137 10.8262 4.35027 -0.0391418 15.801 5.81563 -0.0 0.0 -0.0 8.14924 8.5205 15.5459 -10.4748 -17.4865 63.445 1.83919 -42.3319 0.712168 -53.7982 -4.5231 4.86666 -0.645044 13.1367 1.34581 -0.0 0.0 -0.0 4.3692 1.74354 -8.35297 -13.6638 14.3013 -65.4487 0.57471 15.8915 -0.0802162 67.9263 2.52808 7.78839 -5.51259 -29.1145 18.6141 0.0 0.0 0.0 -9.66191 37.35 -10.3181 -40.4169 -0.493504 6.05654 35.6446 13.3908 -4.50295 -11.0419 0.0 0.0 -0.0 0.0 -0.0 20.9698 25.4949 -8.64306 -18.1809 -0.312853 -2.76079 9.6801 -11.9588 1.3809 12.9118 -0.0 -0.0 0.0 0.0 0.0 
2706.66613795 723.272 -1534.82592118 13.7963469864 58.6034052807 -10.5868375293 -2.51277 -0.153488 -2.23392 -2.51 -0.011063 -2.23915 -2.50659 0.555466 -2.16922 -2.5131 0.205996 -2.22969 -0.223137 10.8262 4.35027 -0.0391418 15.801 5.81563 -0.0 0.0 -0.0 8.14924 8.5205 15.5459 -10.4748 -17.4865 63.445 1.83919 -42.3319 0.712168 -53.7982 -4.5231 4.86666 -0.645044 13.1367 1.34581 -0.0 0.0 -0.0 4.3692 1.74354 -8.35297 -13.6638 14.3013 -65.4487 0.57471 15.8915 -0.0802162 67.9263 2.52808 7.78839 -5.51259 -29.1145 18.6141 0.0 0.0 0.0 -9.66191 37.35 -10.3181 -40.4169 -0.493504 6.05654 35.6446 13.3908 -4.50295 -11.0419 0.0 0.0 -0.0 0.0 -0.0 20.9698 25.4949 -8.64306 -18.1809 -0.312853 -2.76079 9.6801 -11.9588 1.3809 12.9118 -0.0 -0.0 0.0 0.0 0.0 
2669.1127529 731.552 -1553.82619166 17.4791142381 62.2261919663 -14.1213113964 -2.92651 -0.102078 -1.83682 -2.92463 0.0149904 -1.83959 -2.92296 0.492482 -1.77253 -2.92729 0.206413 -1.82804 0.755469 10.3551 5.58502 0.935665 13.7494 7.03404 -0.0 0.0 -0.0 8.02598 9.05706 15.2864 -15.8992 -17.6361 62.914 1.30301 -32.8397 0.384003 -52.3864 -4.35395 4.80185 -0.0952486 14.0334 5.16186 -0.0 0.0 -0.0 5.68895 1.79062 -10.9638 -9.69777 17.7794 -65.5185 0.638321 17.5473 -0.0985179 68.2203 2.55782 7.81159 -5.59187 -29.0954 19.0857 0.0 0.0 0.0 -7.37937 32.1534 -12.9699 -48.9612 -1.13291 7.20376 31.9697 22.5935 -4.27347 -12.2548 0.0 0.0 -0.0 0.0 -0.0 17.0523 26.6794 -9.7099 -16.856 -0.31982 -2.55764 11.3519 -12.4491 1.61118 10.1357 -0.0 -0.0 0.0 0.0 0.0 
2661.9600272 732.125 -1557.19021028 18.3451093284 62.4219072211 -15.1118202421 -3.10585 0.042709 -1.63816 -3.10437 0.146849 -1.63213 -3.10701 0.570857 -1.5361 -3.11016 0.321128 -1.60696 1.29547 10.039 5.35975 1.46807 13.2695 6.73423 -0.0 0.0 -0.0 8.12881 9.3455 15.4567 -16.4211 -15.7224 63.1211 1.15529 -29.7813 0.307206 -52.1392 -4.32449 4.79008 -0.247163 14.2157 4.28481 -0.0 0.0 -0.0 5.94276 2.29587 -11.4567 -7.82385 17.4911 -65.9861 0.662218 18.1618 -0.105845 68.0645 2.54205 7.79932 -5.67386 -29.0534 19.5936 0.0 0.0 0.0 -6.28008 31.2506 -13.8548 -51.1842 -1.32686 7.48584 32.2967 23.8138 -4.33788 -12.2606 0.0 0.0 -0.0 0.0 -0.0 15.8216 25.492 -9.66936 -16.8871 -0.319711 -2.5624 18.0743 -14.0246 2.50645 11.5005 -0.0 -0.0 0.0 0.0 0.0 
2664.14029242 732.125 -1560.71943547 17.5060055479 61.0266663905 -14.159103103 -3.10585 0.042709 -1.63816 -3.10437 0.146849 -1.63213 -3.10701 0.570857 -1.5361 -3.11016 0.321128 -1.60696 1.29547 10.039 5.35975 1.46807 13.2695 6.73423 -0.0 0.0 -0.0 8.12881 9.3455 15.4567 -16.4211 -15.7224 63.1211 1.15529 -29.7813 0.307206 -52.1392 -4.32449 4.79008 -0.247163 14.2157 4.28481 -0.0 0.0 -0.0 5.94276 2.29587 -11.4567 -7.82385 17.4911 -65.9861 0.662218 18.1618 -0.105845 68.0645 2.54205 7.79932 -5.67386 -29.0534 19.5936 0.0 0.0 0.0 -6.28008 31.2506 -13.8548 -51.1842 -1.32686 7.48584 32.2967 23.8138 -4.33788 -12.2606 0.0 0.0 -0.0 0.0 -0.0 15.8216 25.492 -9.66936 -16.8871 -0.319711 -2.5624 18.0743 -14.0246 2.50645 11.5005 -0.0 -0.0 0.0 0.0 0.0 
2660.2272908 735.607 -1569.18091009 18.0296324249 58.7165663383 -14.3828242684 -3.21462 0.131176 -1.38158 -3.21359 0.218815 -1.37044 -3.21786 0.573908 -1.26359 -3.2199 0.367164 -1.33835 1.68394 10.7276 5.7229 1.88449 14.1056 7.16707 -0.0 0.0 -0.0 8.0372 9.17673 15.2997 -16.1596 -15.2099 63.2893 0.821075 -22.1332 0.160594 -50.9146 -4.17934 4.72988 -0.168483 14.4288 4.86225 -0.0 0.0 -0.0 6.04444 5.45568 -11.5677 -1.89362 18.9029 -67.6483 0.817835 22.0543 -0.159376 69.05 2.64239 7.87624 -5.64811 -29.0648 19.4353 0.0 0.0 0.0 -0.142817 27.3901 -18.7391 -53.5536 -1.54554 7.77809 29.4212 24.7464 -4.03416 -13.5545 0.0 0.0 -0.0 0.0 -0.0 14.5825 25.3159 -10.1984 -16.6695 -0.320424 -2.52902 15.7678 -10.8067 2.1966 11.0679 -0.0 -0.0 0.0 0.0 0.0 
